<svg width="62" height="62" viewBox="0 0 62 62" fill="none" xmlns="http://www.w3.org/2000/svg">
<path d="M30.3894 29.5L7.5 43.5L12 51L17.7417 55.8604L35.8349 57.2657L52.6984 48.4826L58.1439 25.2953L44.7936 5.09421H30.3894V29.5Z" fill="#A0BB69"/>
<path fill-rule="evenodd" clip-rule="evenodd" d="M30.609 61.2179C26.3747 61.2179 22.3956 60.4139 18.6715 58.806C14.9474 57.198 11.7079 55.0176 8.95313 52.2648C6.19832 49.5121 4.01794 46.2726 2.41199 42.5465C0.80604 38.8203 0.00204447 34.8412 3.87455e-06 30.609C-0.00203672 26.3768 0.801959 22.3976 2.41199 18.6715C4.02202 14.9453 6.2024 11.7059 8.95313 8.95312C11.7039 6.20036 14.9433 4.01998 18.6715 2.41199C22.3996 0.803996 26.3788 0 30.609 0C34.8391 0 38.8183 0.803996 42.5465 2.41199C46.2746 4.01998 49.5141 6.20036 52.2648 8.95312C55.0155 11.7059 57.1969 14.9453 58.809 18.6715C60.4211 22.3976 61.2241 26.3768 61.2179 30.609C61.2118 34.8412 60.4078 38.8203 58.806 42.5465C57.2041 46.2726 55.0237 49.5121 52.2648 52.2648C49.5059 55.0176 46.2665 57.199 42.5465 58.809C38.8265 60.419 34.8473 61.222 30.609 61.2179ZM27.5481 6.28801V6.12179H30.609H33.6699V6.28801C39.1903 6.90227 43.9602 9.21906 47.9796 13.2384C51.9989 17.2577 54.3157 22.0276 54.9299 27.5481H55.0961V30.609V33.6699H54.9299C54.3157 39.1903 51.9989 43.9602 47.9796 47.9796C43.9602 51.9989 39.1903 54.3157 33.6699 54.9299V55.0961H30.609H27.5481V54.9299C22.0276 54.3157 17.2577 51.9989 13.2384 47.9796C9.21906 43.9602 6.90227 39.1903 6.28801 33.6699H6.1218V30.609V27.5481H6.28801C6.90227 22.0276 9.21906 17.2577 13.2384 13.2384C17.2577 9.21906 22.0276 6.90227 27.5481 6.28801Z" fill="#333333"/>
<path d="M32.7914 49.8559C32.2037 49.2682 31.4762 48.9744 30.609 48.9744C29.7438 48.9764 29.0173 49.2702 28.4296 49.8559C27.8419 50.4415 27.5481 51.168 27.5481 52.0353V54.9299C28.5439 55.0407 29.5642 55.0961 30.609 55.0961C31.6537 55.0961 32.674 55.0407 33.6699 54.9299V52.0353C33.6719 51.17 33.3791 50.4436 32.7914 49.8559Z" fill="#333333"/>
<path d="M30.609 55.0961H33.6699V54.9299C32.674 55.0407 31.6537 55.0961 30.609 55.0961Z" fill="#333333"/>
<path d="M27.5481 55.0961H30.609C29.5642 55.0961 28.5439 55.0407 27.5481 54.9299V55.0961Z" fill="#333333"/>
<path d="M6.1218 27.5481V30.609C6.1218 29.5642 6.1772 28.5439 6.28801 27.5481H6.1218Z" fill="#333333"/>
<path d="M11.3621 32.7914C11.9497 32.2037 12.2436 31.4762 12.2436 30.609C12.2456 29.7438 11.9528 29.0173 11.3651 28.4296C10.7774 27.8419 10.0499 27.5481 9.18269 27.5481H6.28801C6.1772 28.5439 6.1218 29.5642 6.1218 30.609C6.1218 31.6537 6.1772 32.674 6.28801 33.6699H9.18269C10.0479 33.6719 10.7744 33.3791 11.3621 32.7914Z" fill="#333333"/>
<path d="M6.1218 30.609V33.6699H6.28801C6.1772 32.674 6.1218 31.6537 6.1218 30.609Z" fill="#333333"/>
<path d="M28.4296 11.362C29.0153 11.9497 29.7417 12.2436 30.609 12.2436C31.4742 12.2456 32.2006 11.9528 32.7883 11.3651C33.376 10.7774 33.6699 10.0499 33.6699 9.18269V6.28801C32.674 6.1772 31.6537 6.12179 30.609 6.12179C29.5642 6.12179 28.5439 6.1772 27.5481 6.28801V9.18269C27.5501 10.0479 27.844 10.7744 28.4296 11.362Z" fill="#333333"/>
<path d="M33.6699 6.12179H30.609C31.6537 6.12179 32.674 6.1772 33.6699 6.28801V6.12179Z" fill="#333333"/>
<path d="M30.609 6.12179H27.5481V6.28801C28.5439 6.1772 29.5642 6.12179 30.609 6.12179Z" fill="#333333"/>
<path d="M55.0961 30.609V27.5481H54.9299C55.0407 28.5439 55.0961 29.5642 55.0961 30.609Z" fill="#333333"/>
<path d="M49.8559 28.4296C49.2682 29.0153 48.9744 29.7417 48.9744 30.609C48.9764 31.4742 49.2702 32.2006 49.8559 32.7883C50.4415 33.376 51.168 33.6699 52.0353 33.6699H54.9299C55.0407 32.674 55.0961 31.6537 55.0961 30.609C55.0961 29.5642 55.0407 28.5439 54.9299 27.5481H52.0353C51.17 27.5501 50.4436 27.844 49.8559 28.4296Z" fill="#333333"/>
<path d="M55.0961 33.6699V30.609C55.0961 31.6537 55.0407 32.674 54.9299 33.6699H55.0961Z" fill="#333333"/>
<path d="M20.9683 38.919C19.456 39.7922 17.5222 39.274 16.649 37.7617V37.7617C15.7759 36.2494 16.294 34.3156 17.8063 33.4425L30.6565 26.0233L33.8184 31.4999L20.9683 38.919Z" fill="#333333"/>
<path d="M20.9683 38.919C19.456 39.7922 17.5222 39.274 16.649 37.7617C15.7759 36.2494 16.294 34.3156 17.8064 33.4425L30.6565 26.0233L33.8184 31.4999L20.9683 38.919Z" fill="#333333"/>
<path d="M27.5 22.4846C27.5 20.7384 28.9156 19.3227 30.6619 19.3227V19.3227C32.4082 19.3227 33.8238 20.7384 33.8238 22.4846V31.5H27.5V22.4846Z" fill="#333333"/>
<path d="M27.5 22.4846C27.5 20.7384 28.9156 19.3227 30.6619 19.3227C32.4082 19.3227 33.8238 20.7384 33.8238 22.4846V31.5H27.5V22.4846Z" fill="#333333"/>
</svg>
