<svg width="93" height="100" viewBox="0 0 93 100" fill="none" xmlns="http://www.w3.org/2000/svg">
<path d="M65.7316 54.3262C73.2994 57.8986 79.7522 63.4635 84.398 70.4241C89.0438 77.3847 91.7075 85.4786 92.1034 93.8379C92.1561 94.6036 92.0554 95.3721 91.8071 96.0984C91.5588 96.8246 91.1679 97.4939 90.6574 98.0671C90.1469 98.6402 89.5271 99.1056 88.8343 99.4359C88.1415 99.7662 87.3897 99.9548 86.623 99.9907C85.8563 100.026 85.0902 99.9088 84.3696 99.6445C83.649 99.3803 82.9884 98.9747 82.4267 98.4517C81.865 97.9286 81.4134 97.2987 81.0984 96.5988C80.7835 95.8988 80.6115 95.143 80.5926 94.3758C80.1737 85.497 76.3518 77.1205 69.9201 70.9852C63.4885 64.8498 54.9412 61.4269 46.0526 61.4269C37.1639 61.4269 28.6166 64.8498 22.185 70.9852C15.7534 77.1205 11.9314 85.497 11.5125 94.3758C11.409 95.8786 10.7212 97.2812 9.59627 98.2832C8.47137 99.2852 6.99886 99.8069 5.49407 99.7366C3.98928 99.6662 2.57183 99.0095 1.54528 97.907C0.518719 96.8045 -0.0353397 95.3438 0.00174889 93.8379C0.39694 85.4794 3.05946 77.3861 7.70389 70.4255C12.3483 63.465 18.7995 57.8997 26.3659 54.3262C21.5173 50.282 18.0322 44.8423 16.3847 38.7473C14.7371 32.6522 15.007 26.1975 17.1578 20.2613C19.3085 14.3251 23.2357 9.19544 28.405 5.57018C33.5743 1.94491 39.7349 0 46.0487 0C52.3626 0 58.5232 1.94491 63.6925 5.57018C68.8618 9.19544 72.789 14.3251 74.9397 20.2613C77.0904 26.1975 77.3604 32.6522 75.7128 38.7473C74.0653 44.8423 70.5801 50.282 65.7316 54.3262ZM65.2628 30.713C65.2628 25.6181 63.2389 20.7319 59.6363 17.1293C56.0337 13.5266 51.1475 11.5027 46.0526 11.5027C40.9577 11.5027 36.0715 13.5266 32.4689 17.1293C28.8663 20.7319 26.8423 25.6181 26.8423 30.713C26.8423 35.8078 28.8663 40.694 32.4689 44.2967C36.0715 47.8993 40.9577 49.9232 46.0526 49.9232C51.1475 49.9232 56.0337 47.8993 59.6363 44.2967C63.2389 40.694 65.2628 35.8078 65.2628 30.713Z" fill="#333333"/>
</svg>
