<svg width="40" height="50" viewBox="0 0 40 50" fill="none" xmlns="http://www.w3.org/2000/svg">
<path d="M19.875 2C15.1359 2.00538 10.5925 3.89036 7.2414 7.2414C3.89036 10.5925 2.00538 15.1359 2 19.875C2 35.1703 18.25 46.722 18.9427 47.2055C19.2159 47.3969 19.5414 47.4995 19.875 47.4995C20.2086 47.4995 20.5341 47.3969 20.8073 47.2055C21.5 46.722 37.75 35.1703 37.75 19.875C37.7446 15.1359 35.8596 10.5925 32.5086 7.2414C29.1575 3.89036 24.6141 2.00538 19.875 2ZM19.875 13.375C21.1606 13.375 22.4173 13.7562 23.4862 14.4704C24.5551 15.1847 25.3882 16.1998 25.8802 17.3876C26.3722 18.5753 26.5009 19.8822 26.2501 21.1431C25.9993 22.404 25.3802 23.5622 24.4712 24.4712C23.5622 25.3802 22.404 25.9993 21.1431 26.2501C19.8822 26.5009 18.5753 26.3722 17.3876 25.8802C16.1998 25.3882 15.1847 24.5551 14.4704 23.4862C13.7562 22.4173 13.375 21.1606 13.375 19.875C13.375 18.1511 14.0598 16.4978 15.2788 15.2788C16.4978 14.0598 18.1511 13.375 19.875 13.375Z" fill="#FFC145"/>
<path fill-rule="evenodd" clip-rule="evenodd" d="M19.8727 5.126e-06L19.8773 0C25.146 0.00598216 30.1972 2.10163 33.9228 5.8272C37.6484 9.55276 39.744 14.604 39.75 19.8727V19.875C39.75 28.2203 35.3344 35.3856 31.0595 40.3932C26.7566 45.4337 22.3696 48.554 21.952 48.8455C21.3431 49.2712 20.618 49.4995 19.875 49.4995C19.1314 49.4995 18.4058 49.2709 17.7966 48.8445C17.3705 48.547 12.9886 45.4281 8.69046 40.3932C4.41561 35.3856 0 28.2203 0 19.875L1.3113e-06 19.8727C0.00597835 14.604 2.10162 9.55276 5.82719 5.8272C9.55275 2.10163 14.604 0.00598216 19.8727 5.126e-06ZM19.875 4.00001C15.6664 4.00538 11.6316 5.67963 8.65562 8.65562C5.67936 11.6319 4.00508 15.6671 4 19.8761C4.0004 26.8257 7.70961 33.0835 11.7327 37.7962C15.303 41.9785 18.9445 44.737 19.875 45.4135C20.8055 44.737 24.447 41.9785 28.0173 37.7962C32.0402 33.0837 35.7492 26.8263 35.75 19.8773C35.7452 15.6678 34.0709 11.6322 31.0944 8.65562C28.1184 5.67963 24.0836 4.00538 19.875 4.00001ZM19.6598 45.5674C19.6608 45.5668 19.6617 45.5661 19.6627 45.5654L19.6598 45.5674ZM19.875 15.375C18.6815 15.375 17.5369 15.8491 16.693 16.693C15.8491 17.5369 15.375 18.6815 15.375 19.875C15.375 20.765 15.6389 21.635 16.1334 22.3751C16.6279 23.1151 17.3307 23.6919 18.1529 24.0325C18.9752 24.3731 19.88 24.4622 20.7529 24.2885C21.6258 24.1149 22.4276 23.6863 23.057 23.057C23.6863 22.4276 24.1149 21.6258 24.2885 20.7529C24.4622 19.88 24.3731 18.9752 24.0325 18.1529C23.6919 17.3307 23.1151 16.6279 22.3751 16.1334C21.635 15.6389 20.765 15.375 19.875 15.375ZM13.8646 13.8646C15.4587 12.2705 17.6207 11.375 19.875 11.375C21.5561 11.375 23.1995 11.8735 24.5973 12.8075C25.9952 13.7415 27.0846 15.069 27.728 16.6222C28.3713 18.1754 28.5396 19.8844 28.2117 21.5333C27.8837 23.1821 27.0742 24.6967 25.8854 25.8854C24.6967 27.0742 23.1821 27.8837 21.5333 28.2117C19.8844 28.5397 18.1754 28.3713 16.6222 27.728C15.069 27.0846 13.7415 25.9952 12.8075 24.5974C11.8735 23.1995 11.375 21.5561 11.375 19.875C11.375 17.6207 12.2705 15.4587 13.8646 13.8646Z" fill="#405967"/>
</svg>
