<svg width="175" height="175" viewBox="0 0 175 175" fill="none" xmlns="http://www.w3.org/2000/svg">
<path d="M86.5 88H11.5L15.5 120L50.5 159L102 163L150 138L165.5 72L127.5 14.5H86.5V88Z" fill="#A0BB69"/>
<path fill-rule="evenodd" clip-rule="evenodd" d="M87.1249 174.25C75.0726 174.25 63.7464 171.961 53.1462 167.384C42.546 162.807 33.3253 156.601 25.484 148.766C17.6428 140.93 11.4366 131.71 6.86545 121.104C2.2943 110.498 0.00581935 99.1714 1.10285e-05 87.1249C-0.0057973 75.0784 2.28268 63.7522 6.86545 53.1462C11.4482 42.5402 17.6544 33.3195 25.484 25.484C33.3137 17.6486 42.5344 11.4424 53.1462 6.86544C63.758 2.28848 75.0842 0 87.1249 0C99.1656 0 110.492 2.28848 121.104 6.86544C131.715 11.4424 140.936 17.6486 148.766 25.484C156.595 33.3195 162.804 42.5402 167.393 53.1462C171.982 63.7522 174.267 75.0784 174.25 87.1249C174.232 99.1714 171.944 110.498 167.384 121.104C162.825 131.71 156.619 140.93 148.766 148.766C140.913 156.601 131.692 162.81 121.104 167.393C110.515 171.976 99.1888 174.261 87.1249 174.25ZM78.4124 17.8981V17.425H87.1249H95.8374V17.8981C111.551 19.6465 125.128 26.241 136.568 37.6815C148.009 49.122 154.603 62.699 156.352 78.4124H156.825V87.1249V95.8374H156.352C154.603 111.551 148.009 125.128 136.568 136.568C125.128 148.009 111.551 154.603 95.8374 156.352V156.825H87.1249H78.4124V156.352C62.699 154.603 49.122 148.009 37.6815 136.568C26.241 125.128 19.6465 111.551 17.8981 95.8374H17.425V87.1249V78.4124H17.8981C19.6465 62.699 26.241 49.122 37.6815 37.6815C49.122 26.241 62.699 19.6465 78.4124 17.8981Z" fill="#333333"/>
<path d="M93.3369 141.909C91.6641 140.236 89.5934 139.4 87.1249 139.4C84.6622 139.406 82.5944 140.242 80.9216 141.909C79.2488 143.576 78.4124 145.644 78.4124 148.112V156.352C81.247 156.667 84.1512 156.825 87.1249 156.825C90.0986 156.825 93.0027 156.667 95.8374 156.352V148.112C95.8432 145.65 95.0097 143.582 93.3369 141.909Z" fill="#333333"/>
<path d="M87.1249 156.825H95.8374V156.352C93.0027 156.667 90.0986 156.825 87.1249 156.825Z" fill="#333333"/>
<path d="M78.4124 156.825H87.1249C84.1512 156.825 81.247 156.667 78.4124 156.352V156.825Z" fill="#333333"/>
<path d="M17.425 78.4124V87.1249C17.425 84.1512 17.5827 81.247 17.8981 78.4124H17.425Z" fill="#333333"/>
<path d="M32.3408 93.3369C34.0136 91.6641 34.85 89.5934 34.85 87.1249C34.8558 84.6622 34.0223 82.5944 32.3495 80.9216C30.6767 79.2488 28.606 78.4124 26.1375 78.4124H17.8981C17.5827 81.247 17.425 84.1512 17.425 87.1249C17.425 90.0986 17.5827 93.0027 17.8981 95.8374H26.1375C28.6002 95.8432 30.668 95.0097 32.3408 93.3369Z" fill="#333333"/>
<path d="M17.425 87.1249V95.8374H17.8981C17.5827 93.0027 17.425 90.0986 17.425 87.1249Z" fill="#333333"/>
<path d="M80.9216 32.3408C82.5886 34.0136 84.6564 34.85 87.1249 34.85C89.5876 34.8558 91.6554 34.0223 93.3282 32.3495C95.001 30.6767 95.8374 28.606 95.8374 26.1375V17.8981C93.0027 17.5827 90.0986 17.425 87.1249 17.425C84.1512 17.425 81.247 17.5827 78.4124 17.8981V26.1375C78.4182 28.6002 79.2546 30.668 80.9216 32.3408Z" fill="#333333"/>
<path d="M95.8374 17.425H87.1249C90.0986 17.425 93.0027 17.5827 95.8374 17.8981V17.425Z" fill="#333333"/>
<path d="M87.1249 17.425H78.4124V17.8981C81.247 17.5827 84.1512 17.425 87.1249 17.425Z" fill="#333333"/>
<path d="M156.825 87.1249V78.4124H156.352C156.667 81.247 156.825 84.1512 156.825 87.1249Z" fill="#333333"/>
<path d="M141.909 80.9216C140.236 82.5886 139.4 84.6563 139.4 87.1249C139.406 89.5876 140.242 91.6554 141.909 93.3282C143.576 95.001 145.644 95.8374 148.112 95.8374H156.352C156.667 93.0027 156.825 90.0986 156.825 87.1249C156.825 84.1512 156.667 81.247 156.352 78.4124H148.112C145.65 78.4182 143.582 79.2546 141.909 80.9216Z" fill="#333333"/>
<path d="M156.825 95.8374V87.1249C156.825 90.0986 156.667 93.0027 156.352 95.8374H156.825Z" fill="#333333"/>
<path d="M78.5 64C78.5 59.0294 82.5294 55 87.5 55V55C92.4706 55 96.5 59.0294 96.5 64V83H78.5V64Z" fill="#333333"/>
<path d="M78.5 64C78.5 59.0294 82.5294 55 87.5 55C92.4706 55 96.5 59.0294 96.5 64V83H78.5V64Z" fill="#333333"/>
<path d="M49 96C44.0294 96 40 91.9706 40 87V87C40 82.0294 44.0294 78 49 78H96.5V96H49Z" fill="#333333"/>
<path d="M49 96C44.0294 96 40 91.9706 40 87C40 82.0294 44.0294 78 49 78H96.5V96H49Z" fill="#333333"/>
</svg>
