<svg width="67" height="67" viewBox="0 0 67 67" fill="none" xmlns="http://www.w3.org/2000/svg">
<path d="M41.875 25.125L33.5 0L25.125 25.125L0 33.5L25.125 41.875L33.5 67L41.875 41.875L67 33.5L41.875 25.125ZM11.1667 33.5L27.9167 27.9167L30.7083 33.5H11.1667ZM33.5 55.8333L27.9167 39.0833L33.5 36.2917V55.8333ZM33.5 11.1667L39.0833 27.9167L33.5 30.7083V11.1667ZM39.0833 39.0833L36.2917 33.5H55.8333L39.0833 39.0833ZM24.2875 48.2958L13.9583 53.0417L18.7042 42.7125L23.1708 44.1083L24.2875 48.2958ZM48.2958 42.7125L53.0417 53.0417L42.7125 48.2958L44.1083 43.8292L48.2958 42.7125ZM18.7042 24.2875L13.9583 13.9583L24.2875 18.7042L22.8917 22.8917L18.7042 24.2875ZM42.7125 18.7042L53.0417 13.9583L48.2958 24.2875L43.8292 22.8917L42.7125 18.7042Z" fill="#C5CDD1"/>
</svg>
